<svg data-name="Layer 1" xmlns="http://www.w3.org/2000/svg" viewBox="0 0 236.4 60.2"><path d="M12.2 27.9h.2c2.1-9 6.9-12.6 14.2-12.6s15.5 8.3 15.5 22.1-5.5 22.7-15.8 22.7-11.9-3.8-14-12.7h-.1v11.5H0V4h12.2v23.9Zm17.9 9.6c0-7.1-2.7-11.2-8.9-11.2s-9 3.8-9 10.8v.8c0 6.9 3.3 11.2 9 11.2s8.9-4.3 8.9-11.6Zm13.7.1c0-14.1 8.6-22.4 22-22.4s21.9 8.2 21.9 22.4-8.3 22.5-21.9 22.5-22-8.5-22-22.5Zm12.3-.1c0 6.9 3.4 11.4 9.7 11.4s9.8-4.5 9.8-11.4-3.6-11.2-9.8-11.2c-6.2.1-9.7 4.4-9.7 11.2Zm47.2 21.3H91V16.4h12.3v11.9c2-9.8 7.1-13.1 13.9-13.1s13.1 6.1 13.1 15.2v28.4h-12.2V34c0-4.4-2-7.7-7.1-7.7s-7.8 2.9-7.8 7.7v24.8Zm29.6-13 11.4-2.2c1.2 4.7 3.7 7.5 8.9 7.5s5.9-1.4 6-4c0-2.3-1.6-3.7-9.2-5.2-11.9-2.5-15.9-6.5-15.9-13.5s5.8-13.1 17.7-13.1 17.2 5 18.8 12.9L159 30.8c-1-4.6-3-6.7-7.3-6.7s-5.5 1.4-5.5 3.8 1.1 3.9 9.4 5.5c12.2 2.4 15.7 7 15.7 13.3s-5.5 13.5-18.3 13.5c-14.5 0-18.8-6.6-20.1-14.4Zm66.9 2.7h-.2c-1.9 7.3-6.5 11.3-13.7 11.3s-12.9-4-12.9-12.4 4.6-13 15.8-13h11v-1.8c0-4.6-2-7.1-6.6-7.1s-6.6 1.8-7.4 6.7l-11.5-1.6c1.1-8.9 6.3-15.2 19.4-15.2S212 21.7 212 32.5v26.3h-12.2V48.5Zm0-5.9v-1.3h-9.1c-3.6 0-5.7 1.6-5.7 3.9s1.6 4.7 6.3 4.7 8.5-3 8.5-7.3ZM217 58.8V16.4h12.3v42.4H217Z" style="fill:#000;stroke-width:0"/><path d="M225.3 12.4h-7.6q-.7 0-.7-.7c-.1-6.1 4.1-10.3 8.8-11.4.9-.2 1.8-.3 2.8-.3h7.3c.4 0 .5.1.5.5.1 4.3-1.7 7.7-5.2 10.1-.9.6-1.9 1-3 1.4-.9.3-2.5.4-2.9.4Z" style="stroke-width:0;fill:#5969ee"/></svg>